PathFileType	4	(X/Y/Z)	Run_500 02
DataRate	CameraRate	NumFrames	NumMarkers	Units	OrigDataRate	OrigDataStartFrame	OrigNumFrames
100	100	4	42	mm	100	3	128
Frame#	Time	LASI			RASI			LPSI			RPSI			RTH1			RTH2			RTH3			LTH1			LTH2			LTH3			RTB1			RTB2			RTB3			LTB1			LTB2			LTB3			RCAL			RTOE			RMT5			LCAL			LTOE			LMT5			LACR			RACR			CLAV			C7			RUA1			RUA2			RUA3			RLEL			RMEL			LUA1			LUA2			LUA3			LLEL			LMEL			RFAsuperior			RFAradius			RFAulna			LFAsuperior			LFAradius			LFAulna			
		X1	Y1	Z1	X2	Y2	Z2	X3	Y3	Z3	X4	Y4	Z4	X5	Y5	Z5	X6	Y6	Z6	X7	Y7	Z7	X8	Y8	Z8	X9	Y9	Z9	X10	Y10	Z10	X11	Y11	Z11	X12	Y12	Z12	X13	Y13	Z13	X14	Y14	Z14	X15	Y15	Z15	X16	Y16	Z16	X17	Y17	Z17	X18	Y18	Z18	X19	Y19	Z19	X20	Y20	Z20	X21	Y21	Z21	X22	Y22	Z22	X23	Y23	Z23	X24	Y24	Z24	X25	Y25	Z25	X26	Y26	Z26	X27	Y27	Z27	X28	Y28	Z28	X29	Y29	Z29	X30	Y30	Z30	X31	Y31	Z31	X32	Y32	Z32	X33	Y33	Z33	X34	Y34	Z34	X35	Y35	Z35	X36	Y36	Z36	X37	Y37	Z37	X38	Y38	Z38	X39	Y39	Z39	X40	Y40	Z40	X41	Y41	Z41	X42	Y42	Z42	

1	2.05	829.512385	1002.091053	-455.971865	864.0924199999999	1007.254379	-219.041466	681.995255	1055.136361	-359.759885	691.271023	1045.349021	-261.535335	880.079341	776.8785810000001	-145.162467	974.800967	728.968379	-163.063807	965.937907	624.310275	-191.57299	741.754735	802.983653	-491.59217	765.5917030000001	685.6208370000001	-485.449391	678.849927	600.024756	-464.60518	1084.049391	451.66363	-257.837316	1065.807615	362.595462	-217.140952	1124.253305	270.00141	-283.712863	567.1591529999999	448.446144	-394.653567	471.113471	499.578263	-435.577403	374.145165	445.440624	-364.402881	1069.764357	131.125295	-319.217565	1278.065513	211.323285	-311.742641	1247.97143	147.178131	-223.311721	287.270177	532.422342	-334.04816	183.639937	339.197507	-319.621507	150.769759	398.379164	-403.451419	858.789507	1484.821911	-460.555212	853.0160969999999	1477.066965	-169.285127	935.025605	1406.12903	-297.715534	801.383763	1513.224853	-311.207679	763.123105	1432.711046	-70.128497	685.331509	1411.390098	-113.238253	670.22441	1358.73169	-32.866861	605.1148889999999	1328.108356	-5.999101	578.92008	1315.923915	-78.192431	822.4791750000001	1392.432634	-570.172965	764.938087	1331.831088	-567.939802	820.0688239999999	1307.405313	-631.644012	808.8475100000001	1228.281006	-680.12212	769.5383430000001	1189.605089	-627.432608	667.127343	1229.42107	3.741504	736.878136	1125.733194	-58.586513	680.791574	1095.067944	-30.852421	905.881209	1248.249706	-612.0858919999999	992.996036	1236.383158	-480.687596	1013.986237	1200.621321	-529.427597	
2	2.06	830.499056	996.348709	-455.675035	861.8350380000001	1002.931155	-216.589064	681.090362	1047.750538	-362.268091	689.306405	1038.172476	-263.389452	875.197763	771.6548749999999	-147.728774	968.2225120000001	721.407428	-165.507569	956.021129	616.290834	-195.104338	747.259913	795.486799	-493.028774	776.330292	679.223827	-488.612692	693.609657	590.95512	-468.187083	1065.885618	436.133474	-262.154302	1044.577733	347.994356	-220.774119	1096.064234	252.63324	-288.208636	583.813596	446.772373	-398.689892	490.992627	505.035004	-438.408075	390.940132	459.45693	-366.048232	1033.99206	116.999578	-323.784022	1246.738931	185.329934	-312.477574	1210.782706	122.328016	-224.42883	311.533355	552.736688	-330.447455	191.133059	369.158884	-326.911328	165.684662	434.332715	-409.001928	855.726089	1479.974303	-459.622301	853.518873	1470.178944	-168.368386	934.369823	1400.327098	-298.621972	800.2583509999999	1508.51783	-309.239296	766.346495	1423.0204	-66.68902	687.2466899999999	1400.958789	-105.439518	676.595158	1344.6011	-26.290055	613.4038870000001	1312.10469	2.216108	584.533853	1300.081481	-69.30402599999999	814.004042	1389.843849	-569.200654	755.154733	1331.098163	-565.654369	807.846283	1305.45777	-631.736078	792.536209	1227.523656	-680.363723	753.2637989999999	1190.163425	-627.210616	679.274819	1215.899425	9.036841000000001	751.382873	1115.888457	-56.886981	696.962824	1083.1317	-28.06775	892.439556	1239.885553	-614.854619	981.936777	1218.825935	-487.910098	999.923894	1182.90873	-538.059836	
3	2.07	831.667516	989.113925	-454.832709	859.88816	997.9856129999999	-213.893012	680.283229	1038.958252	-364.776737	687.500869	1029.780866	-265.764807	871.453134	764.5020019999999	-150.196139	961.801965	711.9755	-169.504012	945.502878	606.240911	-197.629893	753.880364	786.826758	-494.561762	788.516354	672.302947	-491.756073	709.628346	581.360048	-472.181164	1045.563475	418.53222	-265.991846	1020.87499	332.47909	-223.9007	1065.010695	233.54266	-291.120653	602.291607	444.328383	-402.756398	512.989786	509.278494	-441.240457	410.938099	471.293955	-367.992991	994.928011	105.507754	-326.305613	1211.085047	155.292724	-317.006403	1170.94872	95.746467	-227.696011	337.194316	570.046557	-327.408054	205.21085	395.384169	-333.773423	187.038402	463.986571	-415.051433	852.366997	1474.256037	-458.969759	853.652768	1462.503578	-167.53828	933.570387	1393.841506	-299.556108	798.527958	1502.274276	-307.216114	769.93584	1411.867467	-63.282129	689.361493	1388.533387	-97.03089	683.7370079999999	1328.977913	-19.46269	622.987616	1294.585909	10.82346	591.398459	1282.414954	-59.664554	804.865266	1386.472683	-567.973434	744.827986	1329.354012	-563.058616	795.1900000000001	1302.990319	-631.363669	775.7868120000001	1226.524083	-680.119742	736.432231	1190.31851	-626.447939	692.674566	1201.161821	14.800063	767.039753	1105.238738	-54.995127	714.540815	1070.194735	-25.12193	878.128764	1230.945511	-617.492011	969.17761	1200.21917	-496.044715	984.094183	1164.180106	-547.583385	
4	2.08	832.997704	980.599186	-453.584784	858.4531930000001	991.963149	-211.827311	679.726086	1028.803683	-366.972808	685.778956	1020.649365	-268.157148	867.368188	754.9656680000001	-151.672886	954.31989	699.41314	-173.061244	933.59264	593.813143	-199.189135	761.728399	777.583537	-496.084296	801.967797	665.265488	-494.54554	726.949012	571.609675	-476.381444	1025.044757	400.718349	-268.800754	996.542519	317.471487	-227.160785	1034.272274	214.792818	-294.067022	622.762939	440.980327	-406.576037	537.14195	511.888363	-444.198899	433.827883	480.683393	-370.338198	956.342593	99.226118	-329.446286	1174.564726	123.240914	-324.589497	1130.477313	71.693353	-232.480503	364.767875	584.393955	-326.630299	224.725202	417.074152	-339.721726	213.364366	486.60748	-421.310564	848.759013	1467.688684	-458.607141	853.536852	1454.312784	-166.820904	932.635585	1386.752846	-300.493624	796.287862	1494.343312	-305.259831	773.812445	1399.421562	-60.082786	692.048989	1374.015071	-88.501379	692.0360020000001	1312.080109	-12.688073	634.093432	1275.904336	19.442474	599.992749	1263.196371	-49.797391	795.383476	1382.30612	-566.55163	734.250196	1326.759374	-560.10116	782.21784	1300.057742	-630.591018	758.88194	1225.27511	-679.326107	719.284802	1190.073223	-625.120065	707.55039	1185.558673	20.556578	783.722261	1093.943724	-53.169863	733.509138	1056.500931	-22.014405	863.194192	1221.590991	-620.084756	954.457329	1181.283837	-504.559224	966.3891630000001	1144.987877	-557.436536	
